<?xml version="1.0" encoding="UTF-8" standalone="no"?>
<svg
   xmlns:dc="http://purl.org/dc/elements/1.1/"
   xmlns:cc="http://creativecommons.org/ns#"
   xmlns:rdf="http://www.w3.org/1999/02/22-rdf-syntax-ns#"
   xmlns:svg="http://www.w3.org/2000/svg"
   xmlns="http://www.w3.org/2000/svg"
   width="169.18851mm"
   height="43.232815mm"
   viewBox="0 0 599.48684 153.18714"
   id="svg2"
   version="1.1">
  <defs
     id="defs4" />
  <metadata
     id="metadata7">
    <rdf:RDF>
      <cc:Work
         rdf:about="">
        <dc:format>image/svg+xml</dc:format>
        <dc:type
           rdf:resource="http://purl.org/dc/dcmitype/StillImage" />
        <dc:title></dc:title>
      </cc:Work>
    </rdf:RDF>
  </metadata>
  <g
     id="text4136"
     style="font-style:normal;font-weight:normal;font-size:57.8335762px;line-height:125%;font-family:sans-serif;letter-spacing:0px;word-spacing:0px;fill:#000000;fill-opacity:1;stroke:none;stroke-width:1px;stroke-linecap:butt;stroke-linejoin:miter;stroke-opacity:1"
     aria-label="Dinner für Gewinner">
    <path
       id="path19"
       style="font-style:normal;font-variant:normal;font-weight:normal;font-stretch:normal;font-family:'Eras Bold ITC';-inkscape-font-specification:'Eras Bold ITC';fill:#ff6600"
       d="M 1.7508864e-7,152.45293 Q 0.62125929,146.01442 0.8471717,142.14567 q 0.3388686,-5.76076 0.6777372,-14.91022 0.2541515,-7.00328 0.2541515,-10.02486 v -3.30397 q 3.3039689,0.0847 5.7042883,0.0847 2.3156021,0 6.0713963,-0.11296 3.755793,-0.14119 7.059762,-0.14119 3.784033,0 6.636177,0.45182 2.852144,0.45183 5.308942,1.86378 2.485036,1.41195 4.15114,3.69932 1.666104,2.28736 2.541515,5.36542 0.87541,3.04981 0.87541,6.2973 0,3.19102 -0.677737,6.15612 -0.677737,2.93686 -1.892016,5.30894 -1.214279,2.37208 -2.852144,4.09466 -1.609626,1.69434 -3.699316,2.90862 -1.553148,0.90365 -3.134535,1.41196 -1.581386,0.5083 -4.320574,0.81893 -3.049818,0.33887 -6.918568,0.33887 l -11.4085764,-0.0847 q -1.6096259,0 -5.22422442491136,0.0847 z M 12.19927,143.95297 q 1.553148,0.1412 3.247491,0.1412 2.880383,0 5.139507,-0.50831 2.259124,-0.5083 3.953467,-2.1744 1.722582,-1.66611 2.541515,-4.2641 0.818932,-2.62623 0.818932,-5.36542 0,-3.36045 -1.214279,-5.64781 -1.214279,-2.3156 -3.247491,-3.21925 -2.004972,-0.90365 -5.478375,-0.90365 -2.033212,0 -4.800639,0.16943 z" />
    <path
       id="path21"
       style="font-style:normal;font-variant:normal;font-weight:normal;font-stretch:normal;font-family:'Eras Bold ITC';-inkscape-font-specification:'Eras Bold ITC'"
       d="m 45.944935,120.0345 q 0.169434,-3.36045 0.169434,-5.30895 0,-0.56478 -0.02824,-1.5249 3.416925,0.0565 5.732528,0.0565 3.191012,0 5.591332,-0.0565 -0.08472,0.87541 -0.112957,1.46843 l -0.169434,3.50164 q -0.05648,0.79069 -0.05648,1.86378 -2.795666,-0.0565 -5.36542,-0.0565 -2.65447,0 -5.760766,0.0565 z m -1.77906,32.41843 q 0.395347,-3.44517 0.59302,-5.67605 0.197673,-2.23089 0.367108,-5.70429 0.197673,-3.4734 0.338868,-7.68102 0.141195,-4.20762 0.225913,-9.77071 3.671076,0.0565 5.873722,0.0565 2.004973,0 5.760767,-0.0565 -0.480064,5.33718 -0.705977,9.37536 -0.197673,4.03818 -0.254151,8.55643 -0.112956,8.01989 -0.112956,10.90028 -3.360447,-0.0565 -5.789006,-0.0565 -2.400319,0 -6.297308,0.0565 z" />
    <path
       id="path23"
       style="font-style:normal;font-variant:normal;font-weight:normal;font-stretch:normal;font-family:'Eras Bold ITC';-inkscape-font-specification:'Eras Bold ITC'"
       d="m 62.125913,152.45293 q 0.818932,-6.41027 1.242518,-14.14777 0.451825,-7.76574 0.536542,-14.6843 3.388686,0.0565 5.845484,0.0565 2.852144,0 5.478375,-0.0565 l -0.28239,3.84051 q 0.931889,-1.04485 1.609626,-1.63787 0.677737,-0.62126 1.666104,-1.18604 1.016606,-0.59302 2.146168,-0.96013 1.129562,-0.3671 2.456797,-0.56478 1.355475,-0.22591 2.823905,-0.22591 2.033212,0 3.953467,0.45183 1.948495,0.42358 3.247491,1.24251 1.298997,0.7907 2.174407,2.00498 0.875411,1.18604 1.157801,2.56975 0.282391,1.38371 0.282391,2.85214 0,1.07309 -0.225913,4.63121 l -0.480064,10.22253 q -0.141195,3.02158 -0.141195,5.59134 -2.852144,-0.0565 -5.33718,-0.0565 -3.360447,0 -6.127874,0.0565 0.254151,-2.56976 0.536542,-7.62455 0.28239,-5.08303 0.28239,-7.14448 0,-3.19101 -1.242518,-4.43353 -1.214279,-1.27076 -3.078057,-1.27076 -1.637865,0 -3.106295,1.07309 -1.440192,1.07308 -2.230885,3.13453 -0.790694,2.03321 -1.129562,6.7209 -0.31063,4.68768 -0.423586,9.5448 -2.823905,-0.0565 -5.506615,-0.0565 -2.823905,0 -6.127874,0.0565 z" />
    <path
       id="path25"
       style="font-style:normal;font-variant:normal;font-weight:normal;font-stretch:normal;font-family:'Eras Bold ITC';-inkscape-font-specification:'Eras Bold ITC'"
       d="m 101.43467,152.45293 q 0.81893,-6.41027 1.24252,-14.14777 0.45182,-7.76574 0.53654,-14.6843 3.38868,0.0565 5.84548,0.0565 2.85214,0 5.47838,-0.0565 l -0.28239,3.84051 q 0.93188,-1.04485 1.60962,-1.63787 0.67774,-0.62126 1.66611,-1.18604 1.0166,-0.59302 2.14616,-0.96013 1.12957,-0.3671 2.4568,-0.56478 1.35548,-0.22591 2.82391,-0.22591 2.03321,0 3.95346,0.45183 1.9485,0.42358 3.24749,1.24251 1.299,0.7907 2.17441,2.00498 0.87541,1.18604 1.1578,2.56975 0.28239,1.38371 0.28239,2.85214 0,1.07309 -0.22591,4.63121 l -0.48006,10.22253 q -0.1412,3.02158 -0.1412,5.59134 -2.85214,-0.0565 -5.33718,-0.0565 -3.36045,0 -6.12787,0.0565 0.25415,-2.56976 0.53654,-7.62455 0.28239,-5.08303 0.28239,-7.14448 0,-3.19101 -1.24252,-4.43353 -1.21428,-1.27076 -3.07806,-1.27076 -1.63786,0 -3.10629,1.07309 -1.44019,1.07308 -2.23089,3.13453 -0.79069,2.03321 -1.12956,6.7209 -0.31063,4.68768 -0.42358,9.5448 -2.82391,-0.0565 -5.50662,-0.0565 -2.8239,0 -6.12787,0.0565 z" />
    <path
       id="path27"
       style="font-style:normal;font-variant:normal;font-weight:normal;font-stretch:normal;font-family:'Eras Bold ITC';-inkscape-font-specification:'Eras Bold ITC'"
       d="m 168.98247,143.92473 q -0.36711,1.69435 -1.41195,8.18933 -3.27573,0.6495 -5.50662,0.84717 -2.23088,0.22591 -4.51824,0.22591 -3.36045,0 -6.18436,-0.48006 -2.8239,-0.45183 -4.88535,-1.63787 -2.03321,-1.18604 -3.41693,-2.93686 -1.38371,-1.77906 -2.11793,-4.20762 -0.70597,-2.42856 -0.70597,-4.99831 0,-3.6146 1.44019,-7.05976 1.44019,-3.4734 3.69932,-5.4219 2.28736,-1.94849 5.25246,-2.76743 2.9651,-0.81893 6.07139,-0.81893 3.21926,0 6.12788,0.76246 2.93686,0.73421 4.97007,2.59799 2.03321,1.86378 2.88038,4.20762 0.87542,2.34384 0.87542,5.05479 0,1.60962 -0.36711,3.58636 l -19.79558,0.0282 q -0.0282,0.45182 -0.0282,0.81893 0,3.04982 2.17441,4.49001 2.17441,1.44019 5.30894,1.44019 1.86378,0 4.23586,-0.42359 2.40032,-0.45182 5.90196,-1.49667 z m -17.36701,-9.14945 h 9.31888 q 0.0282,-0.48006 0.0282,-0.81893 0,-1.46843 -0.53654,-2.51328 -0.5083,-1.04484 -1.49667,-1.52491 -0.96013,-0.48006 -2.17441,-0.48006 -0.84717,0 -1.63786,0.28239 -0.7907,0.25415 -1.44019,0.79069 -0.62126,0.50831 -1.04485,1.18604 -0.42358,0.67774 -0.62126,1.32724 -0.19767,0.62126 -0.39534,1.75082 z" />
    <path
       id="path29"
       style="font-style:normal;font-variant:normal;font-weight:normal;font-stretch:normal;font-family:'Eras Bold ITC';-inkscape-font-specification:'Eras Bold ITC'"
       d="m 175.22331,152.45293 0.87541,-12.53814 0.28239,-7.20096 q 0.0282,-1.94849 0.0282,-3.98171 0,-2.06145 -0.0565,-5.11126 3.41693,0.0565 5.4219,0.0565 2.34384,0 5.39366,-0.0565 l -0.11296,3.19101 q 1.10133,-1.24252 1.8073,-1.83554 0.70598,-0.62126 1.60963,-1.10132 0.90365,-0.50831 1.89201,-0.73422 0.98837,-0.25415 2.06146,-0.25415 1.0166,0 2.25912,0.28239 0.0282,3.07806 0.14119,5.08303 l 0.19768,4.34881 q -1.55315,-0.45182 -2.90862,-0.45182 -1.69435,0 -2.93687,0.5083 -1.21427,0.48007 -2.1744,1.49667 -0.93189,0.98837 -1.49667,2.48504 -0.56478,1.49667 -0.7907,4.74416 -0.22591,3.24749 -0.22591,7.42687 0,1.46843 0.11296,3.64284 -2.73919,-0.0565 -5.50662,-0.0565 -2.73918,0 -5.87372,0.0565 z" />
    <path
       id="path31"
       style="font-style:normal;font-variant:normal;font-weight:normal;font-stretch:normal;font-family:'Eras Bold ITC';-inkscape-font-specification:'Eras Bold ITC';fill:#ff6600"
       d="m 215.80283,152.45293 q 0.53654,-5.4219 1.299,-20.72747 h -3.44517 q 0.0847,-0.87541 0.22591,-3.72755 0.16944,-2.85215 0.19768,-4.1229 h 4.00994 q -0.0282,-1.12956 -0.0282,-1.9485 0,-2.59799 0.25416,-4.06642 0.28239,-1.46843 0.98836,-2.48504 0.73422,-1.04484 2.03321,-1.83554 1.32724,-0.81893 2.9651,-1.10132 1.66611,-0.28239 3.44517,-0.28239 1.63786,0 3.52988,0.22591 1.92026,0.19768 4.57473,0.90365 0.0847,4.49001 0.3671,7.45511 -2.79566,-1.0166 -5.02655,-1.0166 -1.52491,0 -2.40032,0.70597 -0.84717,0.70598 -0.84717,2.598 l 0.0282,0.84717 h 6.49498 q -0.22591,3.24749 -0.45182,7.85045 h -5.87373 l -0.93188,20.72747 q -3.36045,-0.0565 -5.76077,-0.0565 -2.42856,0 -5.64781,0.0565 z" />
    <path
       id="path33"
       style="font-style:normal;font-variant:normal;font-weight:normal;font-stretch:normal;font-family:'Eras Bold ITC';-inkscape-font-specification:'Eras Bold ITC'"
       d="m 269.11815,152.45293 q -3.21925,-0.0565 -5.36542,-0.0565 -2.65447,0 -5.33718,0.0565 l -0.0282,-3.86875 q -1.01661,1.27075 -1.72258,1.92025 -0.70598,0.62126 -1.55315,1.10133 -0.81893,0.48006 -1.86378,0.84717 -1.0166,0.33887 -2.37208,0.53654 -1.32723,0.19767 -2.71095,0.19767 -2.23088,0 -4.23586,-0.53654 -1.97673,-0.5083 -3.50164,-1.75082 -1.49667,-1.24252 -2.06145,-2.82391 -0.53654,-1.58138 -0.53654,-3.67107 0,-0.50831 0.0847,-1.58139 l 0.45182,-6.41026 q 0.19767,-3.52989 0.36711,-7.82222 0.11296,-2.62623 0.11296,-4.97007 3.50164,0.0565 5.95844,0.0565 2.48503,0 5.47837,-0.0565 l -0.87541,10.75907 q -0.19767,2.4568 -0.22591,3.36045 0,0.87541 0,1.18604 0,2.9651 1.18604,4.00995 1.21428,1.04484 2.88038,1.04484 0.67774,0 1.35548,-0.19767 0.67773,-0.19768 1.29899,-0.56478 0.53654,-0.33887 0.98837,-0.84717 0.48006,-0.53655 0.84717,-1.299 0.45183,-0.93189 0.67774,-2.00497 0.31063,-1.49667 0.48006,-3.78404 0.11296,-1.6661 0.31063,-5.76076 l 0.22591,-5.90196 q 3.64284,0.0565 5.98668,0.0565 2.62623,0 5.2807,-0.0565 -0.64949,7.17271 -1.0166,13.63946 -0.36711,6.46674 -0.56478,15.19261 z m -12.31223,-33.26561 0.0847,-1.97673 q 0.0282,-0.6495 0.11296,-1.58139 l 0.0847,-1.10132 0.0282,-0.96013 q 2.59799,0.0565 3.81227,0.0565 1.1578,0 3.58636,-0.0565 -0.0565,0.96013 -0.22591,5.61957 -2.03321,-0.0847 -3.55812,-0.0847 -1.38371,0 -3.92523,0.0847 z m -10.92851,0 0.25415,-4.29233 q 0.0565,-0.59302 0.0847,-1.32724 2.56975,0.0565 3.81227,0.0565 1.1578,0 3.55812,-0.0565 l -0.22591,5.61957 q -2.00498,-0.0847 -3.52988,-0.0847 -1.38372,0 -3.95347,0.0847 z" />
    <path
       id="path35"
       style="font-style:normal;font-variant:normal;font-weight:normal;font-stretch:normal;font-family:'Eras Bold ITC';-inkscape-font-specification:'Eras Bold ITC'"
       d="m 275.52841,152.45293 0.87541,-12.53814 0.28239,-7.20096 q 0.0282,-1.94849 0.0282,-3.98171 0,-2.06145 -0.0565,-5.11126 3.41693,0.0565 5.4219,0.0565 2.34384,0 5.39366,-0.0565 l -0.11296,3.19101 q 1.10133,-1.24252 1.8073,-1.83554 0.70598,-0.62126 1.60963,-1.10132 0.90365,-0.50831 1.89201,-0.73422 0.98837,-0.25415 2.06145,-0.25415 1.01661,0 2.25913,0.28239 0.0282,3.07806 0.14119,5.08303 l 0.19768,4.34881 q -1.55315,-0.45182 -2.90862,-0.45182 -1.69435,0 -2.93687,0.5083 -1.21428,0.48007 -2.1744,1.49667 -0.93189,0.98837 -1.49667,2.48504 -0.56478,1.49667 -0.7907,4.74416 -0.22591,3.24749 -0.22591,7.42687 0,1.46843 0.11296,3.64284 -2.73919,-0.0565 -5.50662,-0.0565 -2.73919,0 -5.87372,0.0565 z" />
    <path
       id="path37"
       style="font-style:normal;font-variant:normal;font-weight:normal;font-stretch:normal;font-family:'Eras Bold ITC';-inkscape-font-specification:'Eras Bold ITC';fill:#ff6600"
       d="m 337.88025,129.97464 q 3.86875,0.0565 7.37039,0.0565 5.98668,0 9.37537,-0.0565 -0.36711,3.86875 -0.76245,10.95675 -0.36711,7.08801 -0.45183,10.7026 -3.24749,0.59302 -5.39366,0.84718 -2.11793,0.28239 -5.11127,0.48006 -2.99334,0.22591 -5.33718,0.22591 -3.84051,0 -7.53982,-0.62126 -3.69932,-0.62126 -6.63618,-2.00497 -2.90862,-1.38371 -4.85712,-3.75579 -1.94849,-2.37208 -3.02158,-5.61957 -1.04484,-3.2475 -1.04484,-6.7209 0,-5.73253 2.85214,-10.64612 2.85215,-4.9136 8.18933,-7.76574 5.36542,-2.88038 13.83713,-2.88038 6.18436,0 13.69594,1.49667 0,4.1229 0.36711,9.17769 -2.03321,-0.67774 -3.30397,-1.01661 -1.24252,-0.36711 -2.93686,-0.6495 -1.6661,-0.31063 -3.19101,-0.45182 -1.49667,-0.1412 -2.68271,-0.1412 -3.1063,0 -5.87372,0.90365 -2.76743,0.87541 -4.7724,2.73919 -1.97674,1.83554 -2.9651,4.40529 -0.98837,2.56976 -0.98837,5.4219 0,2.90862 1.12956,5.19599 1.12956,2.25912 3.58636,3.44516 2.4568,1.18604 5.47838,1.18604 2.51327,0 5.50661,-0.73421 l 0.31063,-6.12788 q -1.83554,-0.0847 -2.17441,-0.0847 l -2.99334,0.0282 0.19768,-3.4734 q 0.0282,-0.56478 0.0847,-1.60963 0.0565,-1.07308 0.0565,-2.90862 z" />
    <path
       id="path39"
       style="font-style:normal;font-variant:normal;font-weight:normal;font-stretch:normal;font-family:'Eras Bold ITC';-inkscape-font-specification:'Eras Bold ITC'"
       d="m 388.00455,143.92473 q -0.36711,1.69435 -1.41195,8.18933 -3.27573,0.6495 -5.50662,0.84717 -2.23088,0.22591 -4.51824,0.22591 -3.36045,0 -6.18436,-0.48006 -2.8239,-0.45183 -4.88535,-1.63787 -2.03321,-1.18604 -3.41693,-2.93686 -1.38371,-1.77906 -2.11793,-4.20762 -0.70597,-2.42856 -0.70597,-4.99831 0,-3.6146 1.44019,-7.05976 1.44019,-3.4734 3.69931,-5.4219 2.28737,-1.94849 5.25247,-2.76743 2.9651,-0.81893 6.07139,-0.81893 3.21926,0 6.12788,0.76246 2.93686,0.73421 4.97007,2.59799 2.03321,1.86378 2.88038,4.20762 0.87541,2.34384 0.87541,5.05479 0,1.60962 -0.3671,3.58636 l -19.79558,0.0282 q -0.0282,0.45182 -0.0282,0.81893 0,3.04982 2.17441,4.49001 2.17441,1.44019 5.30894,1.44019 1.86378,0 4.23586,-0.42359 2.40032,-0.45182 5.90196,-1.49667 z m -17.36702,-9.14945 h 9.31889 q 0.0282,-0.48006 0.0282,-0.81893 0,-1.46843 -0.53654,-2.51328 -0.5083,-1.04484 -1.49667,-1.52491 -0.96013,-0.48006 -2.17441,-0.48006 -0.84717,0 -1.63786,0.28239 -0.7907,0.25415 -1.44019,0.79069 -0.62126,0.50831 -1.04485,1.18604 -0.42359,0.67774 -0.62126,1.32724 -0.19767,0.62126 -0.39535,1.75082 z" />
    <path
       id="path41"
       style="font-style:normal;font-variant:normal;font-weight:normal;font-stretch:normal;font-family:'Eras Bold ITC';-inkscape-font-specification:'Eras Bold ITC'"
       d="m 401.84169,152.45293 q -6.24083,-19.8803 -9.54479,-28.83207 2.76742,0.0565 5.56309,0.0565 2.62623,0 4.99831,-0.0565 l 4.00995,14.79726 0.67773,2.90862 1.86378,-5.81724 4.06642,-11.88864 q 2.73919,0.0565 5.59134,0.0565 3.02157,0 5.30894,-0.0565 l 3.89699,15.81386 0.3671,1.89202 0.45183,-1.41195 q 0.16943,-0.53654 0.84717,-2.48504 l 4.80064,-13.80889 q 2.76743,0.0565 5.13951,0.0565 2.03321,0 5.36542,-0.0565 l -10.39197,24.3703 -1.8073,4.46177 q -2.93687,-0.0565 -4.97008,-0.0565 -2.23088,0 -5.789,0.0565 l -2.00497,-8.16109 q -0.56479,-2.34384 -1.97674,-8.92354 -4.17938,12.11455 -6.09963,17.08463 -2.9651,-0.0565 -4.80064,-0.0565 -2.11793,0 -5.5631,0.0565 z" />
    <path
       id="path43"
       style="font-style:normal;font-variant:normal;font-weight:normal;font-stretch:normal;font-family:'Eras Bold ITC';-inkscape-font-specification:'Eras Bold ITC'"
       d="m 448.40788,120.0345 q 0.16944,-3.36045 0.16944,-5.30895 0,-0.56478 -0.0282,-1.5249 3.41692,0.0565 5.73253,0.0565 3.19101,0 5.59133,-0.0565 -0.0847,0.87541 -0.11296,1.46843 l -0.16943,3.50164 q -0.0565,0.79069 -0.0565,1.86378 -2.79567,-0.0565 -5.36542,-0.0565 -2.65447,0 -5.76077,0.0565 z m -1.77906,32.41843 q 0.39535,-3.44517 0.59302,-5.67605 0.19768,-2.23089 0.36711,-5.70429 0.19767,-3.4734 0.33887,-7.68102 0.14119,-4.20762 0.22591,-9.77071 3.67108,0.0565 5.87372,0.0565 2.00498,0 5.76077,-0.0565 -0.48006,5.33718 -0.70598,9.37536 -0.19767,4.03818 -0.25415,8.55643 -0.11295,8.01989 -0.11295,10.90028 -3.36045,-0.0565 -5.78901,-0.0565 -2.40032,0 -6.29731,0.0565 z" />
    <path
       id="path45"
       style="font-style:normal;font-variant:normal;font-weight:normal;font-stretch:normal;font-family:'Eras Bold ITC';-inkscape-font-specification:'Eras Bold ITC'"
       d="m 464.58886,152.45293 q 0.81894,-6.41027 1.24252,-14.14777 0.45183,-7.76574 0.53654,-14.6843 3.38869,0.0565 5.84549,0.0565 2.85214,0 5.47837,-0.0565 l -0.28239,3.84051 q 0.93189,-1.04485 1.60963,-1.63787 0.67774,-0.62126 1.6661,-1.18604 1.01661,-0.59302 2.14617,-0.96013 1.12956,-0.3671 2.4568,-0.56478 1.35547,-0.22591 2.8239,-0.22591 2.03322,0 3.95347,0.45183 1.9485,0.42358 3.24749,1.24251 1.299,0.7907 2.17441,2.00498 0.87541,1.18604 1.1578,2.56975 0.28239,1.38371 0.28239,2.85214 0,1.07309 -0.22591,4.63121 l -0.48007,10.22253 q -0.14119,3.02158 -0.14119,5.59134 -2.85215,-0.0565 -5.33718,-0.0565 -3.36045,0 -6.12788,0.0565 0.25416,-2.56976 0.53655,-7.62455 0.28239,-5.08303 0.28239,-7.14448 0,-3.19101 -1.24252,-4.43353 -1.21428,-1.27076 -3.07806,-1.27076 -1.63786,0 -3.10629,1.07309 -1.4402,1.07308 -2.23089,3.13453 -0.79069,2.03321 -1.12956,6.7209 -0.31063,4.68768 -0.42359,9.5448 -2.8239,-0.0565 -5.50661,-0.0565 -2.82391,0 -6.12788,0.0565 z" />
    <path
       id="path47"
       style="font-style:normal;font-variant:normal;font-weight:normal;font-stretch:normal;font-family:'Eras Bold ITC';-inkscape-font-specification:'Eras Bold ITC'"
       d="m 503.89761,152.45293 q 0.81893,-6.41027 1.24252,-14.14777 0.45182,-7.76574 0.53654,-14.6843 3.38869,0.0565 5.84548,0.0565 2.85215,0 5.47838,-0.0565 l -0.28239,3.84051 q 0.93189,-1.04485 1.60963,-1.63787 0.67773,-0.62126 1.6661,-1.18604 1.01661,-0.59302 2.14617,-0.96013 1.12956,-0.3671 2.4568,-0.56478 1.35547,-0.22591 2.8239,-0.22591 2.03321,0 3.95347,0.45183 1.94849,0.42358 3.24749,1.24251 1.29899,0.7907 2.17441,2.00498 0.87541,1.18604 1.1578,2.56975 0.28239,1.38371 0.28239,2.85214 0,1.07309 -0.22592,4.63121 l -0.48006,10.22253 q -0.14119,3.02158 -0.14119,5.59134 -2.85215,-0.0565 -5.33719,-0.0565 -3.36044,0 -6.12787,0.0565 0.25415,-2.56976 0.53654,-7.62455 0.28239,-5.08303 0.28239,-7.14448 0,-3.19101 -1.24252,-4.43353 -1.21427,-1.27076 -3.07805,-1.27076 -1.63787,0 -3.1063,1.07309 -1.44019,1.07308 -2.23088,3.13453 -0.7907,2.03321 -1.12956,6.7209 -0.31063,4.68768 -0.42359,9.5448 -2.82391,-0.0565 -5.50662,-0.0565 -2.8239,0 -6.12787,0.0565 z" />
    <path
       id="path49"
       style="font-style:normal;font-variant:normal;font-weight:normal;font-stretch:normal;font-family:'Eras Bold ITC';-inkscape-font-specification:'Eras Bold ITC'"
       d="m 571.44541,143.92473 q -0.36711,1.69435 -1.41195,8.18933 -3.27573,0.6495 -5.50662,0.84717 -2.23088,0.22591 -4.51825,0.22591 -3.36044,0 -6.18435,-0.48006 -2.8239,-0.45183 -4.88536,-1.63787 -2.03321,-1.18604 -3.41692,-2.93686 -1.38371,-1.77906 -2.11793,-4.20762 -0.70598,-2.42856 -0.70598,-4.99831 0,-3.6146 1.4402,-7.05976 1.44019,-3.4734 3.69931,-5.4219 2.28736,-1.94849 5.25247,-2.76743 2.9651,-0.81893 6.07139,-0.81893 3.21925,0 6.12787,0.76246 2.93687,0.73421 4.97008,2.59799 2.03321,1.86378 2.88038,4.20762 0.87541,2.34384 0.87541,5.05479 0,1.60962 -0.36711,3.58636 l -19.79557,0.0282 q -0.0282,0.45182 -0.0282,0.81893 0,3.04982 2.17441,4.49001 2.1744,1.44019 5.30894,1.44019 1.86378,0 4.23586,-0.42359 2.40032,-0.45182 5.90196,-1.49667 z m -17.36702,-9.14945 h 9.31889 q 0.0282,-0.48006 0.0282,-0.81893 0,-1.46843 -0.53654,-2.51328 -0.50831,-1.04484 -1.49667,-1.52491 -0.96013,-0.48006 -2.17441,-0.48006 -0.84717,0 -1.63787,0.28239 -0.79069,0.25415 -1.44019,0.79069 -0.62126,0.50831 -1.04484,1.18604 -0.42359,0.67774 -0.62126,1.32724 -0.19767,0.62126 -0.39535,1.75082 z" />
    <path
       id="path51"
       style="font-style:normal;font-variant:normal;font-weight:normal;font-stretch:normal;font-family:'Eras Bold ITC';-inkscape-font-specification:'Eras Bold ITC'"
       d="m 577.68628,152.45293 0.87541,-12.53814 0.28239,-7.20096 q 0.0282,-1.94849 0.0282,-3.98171 0,-2.06145 -0.0565,-5.11126 3.41692,0.0565 5.4219,0.0565 2.34384,0 5.39366,-0.0565 l -0.11296,3.19101 q 1.10132,-1.24252 1.8073,-1.83554 0.70598,-0.62126 1.60963,-1.10132 0.90364,-0.50831 1.89201,-0.73422 0.98837,-0.25415 2.06145,-0.25415 1.01661,0 2.25913,0.28239 0.0282,3.07806 0.14119,5.08303 l 0.19767,4.34881 q -1.55314,-0.45182 -2.90862,-0.45182 -1.69434,0 -2.93686,0.5083 -1.21428,0.48007 -2.17441,1.49667 -0.93188,0.98837 -1.49667,2.48504 -0.56478,1.49667 -0.79069,4.74416 -0.22591,3.24749 -0.22591,7.42687 0,1.46843 0.11296,3.64284 -2.73919,-0.0565 -5.50662,-0.0565 -2.73919,0 -5.87372,0.0565 z" />
  </g>
  <path
     style="fill:#ff6600;fill-opacity:1"
     d="m 282.57258,98.585862 c -4.08533,-1.30624 -6.63845,-4.87382 -6.63845,-9.27611 0,-1.73843 0.51676,-3.45826 1.49775,-4.98459 3.5914,-5.58788 12.02126,-5.75373 15.71854,-0.30925 1.26145,1.85757 1.67142,3.18025 1.68856,5.44766 0.0127,1.64609 -0.0671,2.13237 -0.55246,3.37843 -1.5485,3.97541 -4.76263,6.15424 -9.03364,6.12378 -0.89033,-0.006 -2.00694,-0.16463 -2.6803,-0.37992 z m 5.08138,-4.48905 c 0.99272,-0.49605 1.41238,-0.85975 1.98201,-1.71769 1.38418,-2.08471 1.06723,-5.02691 -0.70956,-6.58697 -2.11471,-1.85672 -4.87732,-1.87129 -6.91811,-0.0365 -1.18521,1.06563 -1.67944,2.19098 -1.67566,3.81551 0.005,2.21727 1.3038,4.02531 3.44213,4.79229 1.45614,0.52232 2.43493,0.45503 3.87919,-0.26668 z m -57.03458,-6.3031 c -0.4318,-1.35553 -0.80142,-3.29452 -0.65633,-3.44296 0.13512,-0.13823 3.01849,-0.86843 21.58111,-5.46533 2.89441,-0.71678 5.33528,-1.23961 5.42415,-1.16183 0.19774,0.17305 0.94595,3.16471 0.94928,3.79554 10e-4,0.25947 -0.12119,0.45541 -0.28488,0.45541 -0.21844,0 -20.80912,5.02374 -22.88826,5.58431 -2.1136,0.56987 -3.43472,0.89269 -3.65325,0.89269 -0.14425,0 -0.35657,-0.29603 -0.47182,-0.65783 z m 103.88341,0.35546 c -2.25007,-0.48933 -4.47903,-1.9243 -5.87377,-3.78148 -1.68912,-2.24915 -2.14636,-6.25553 -1.02715,-9.0001 2.80477,-6.87799 11.88726,-8.18159 16.3647,-2.3488 1.28276,1.67105 1.83407,3.17733 1.95171,5.33233 0.25916,4.74794 -2.72934,8.69192 -7.44063,9.81955 -1.38267,0.33094 -2.37903,0.32555 -3.97486,-0.0215 z m 3.35136,-4.34832 c 1.02926,-0.29517 2.20011,-1.18539 2.90324,-2.20735 0.53121,-0.77207 0.63869,-1.14069 0.71451,-2.45032 0.0785,-1.35772 0.0271,-1.66415 -0.43178,-2.56969 -0.82738,-1.63274 -2.77799,-2.89949 -4.46016,-2.89648 -1.8089,0.004 -3.66261,1.09288 -4.57981,2.69212 -0.49972,0.87134 -0.60325,1.27829 -0.60481,2.37776 -0.005,3.48119 3.19956,5.98872 6.45881,5.05396 z m -65.8882,-6.01573 c -0.41643,-0.75211 -4.62255,-7.86468 -5.36263,-9.06818 -0.20538,-0.33398 -0.52403,-0.88049 -0.70814,-1.21445 -0.18411,-0.33398 -1.27963,-2.17625 -2.43452,-4.09394 -1.15489,-1.91771 -2.09978,-3.53584 -2.09978,-3.59583 0,-0.06 -0.30594,-0.58589 -0.67988,-1.16862 -0.37389,-0.58274 -1.19977,-1.97035 -1.83522,-3.08357 -0.63548,-1.113238 -1.68046,-2.889361 -2.32218,-3.946928 -1.70501,-2.8099 -4.70837,-7.884151 -5.15143,-8.703471 -0.21069,-0.389636 -0.90694,-1.573713 -1.54722,-2.631286 -0.64025,-1.057579 -2.37354,-3.972229 -3.85175,-6.476988 -1.4782,-2.504777 -2.75238,-4.628097 -2.83154,-4.718503 -0.0791,-0.09042 -0.95344,0.01887 -1.94288,0.242854 -0.98944,0.223951 -3.30185,0.739092 -5.13868,1.144747 -1.83686,0.405656 -3.764,0.853221 -4.28257,0.994593 l -0.94286,0.257029 -0.21902,-0.832619 c -0.12042,-0.457943 -0.34589,-1.408672 -0.50098,-2.112749 -0.34115,-1.54888 -0.60578,-1.378556 3.51654,-2.263517 1.6142,-0.34654 3.4814,-0.757271 4.14934,-0.912751 0.66794,-0.155479 2.26188,-0.515317 3.5421,-0.799649 1.28023,-0.284326 2.67559,-0.598882 3.10081,-0.69902 0.77281,-0.181973 0.77342,-0.181608 1.43137,0.862454 0.36203,0.574464 1.18365,1.95652 1.8258,3.071213 0.64217,1.114693 1.28,2.180458 1.41739,2.368353 0.23282,0.318422 0.51001,0.301313 4.08046,-0.252044 5.00432,-0.775603 9.86394,-1.607777 9.96213,-1.705979 0.0428,-0.04279 -0.0228,-0.563223 -0.14593,-1.156305 -0.12321,-0.5931 -0.45517,-2.535664 -0.73781,-4.316839 -1.01754,-6.412462 -1.92547,-12.180906 -2.21866,-14.096034 -0.16434,-1.073409 -0.39022,-2.433756 -0.50196,-3.022991 -0.14008,-0.738647 -0.13732,-1.112064 0.009,-1.202427 0.11663,-0.07205 0.96002,-0.241399 1.87412,-0.376234 0.91412,-0.134841 3.03245,-0.468277 4.7074,-0.74099 1.67497,-0.27272 3.9065,-0.627135 4.95896,-0.787605 1.05246,-0.160471 5.37303,-0.844147 9.60128,-1.519296 C 284.91521,0.552395 288.43645,0 288.51195,0 c 0.0755,0 0.23498,0.61481 0.3544,1.36625 0.93847,5.905233 1.20646,7.385886 1.36189,7.524318 0.0979,0.08725 1.45317,-0.05131 3.01169,-0.30777 1.55853,-0.256463 4.01777,-0.655752 5.46498,-0.88731 1.4472,-0.231546 3.4736,-0.556016 4.5031,-0.721045 1.02946,-0.165042 2.7145,-0.433275 3.74452,-0.596071 1.02997,-0.162813 3.63733,-0.578481 5.7941,-0.923718 2.15678,-0.345225 3.98911,-0.552462 4.0719,-0.460499 0.0827,0.09193 0.44017,2.034413 0.79421,4.316542 0.35406,2.282129 0.82767,5.333392 1.05246,6.78062 0.45405,2.923171 0.65113,3.579136 1.03321,3.439219 0.14253,-0.05228 0.85119,-0.181261 1.57479,-0.286797 0.72361,-0.105481 3.41055,-0.531349 5.97099,-0.946268 6.30279,-1.021341 5.81132,-1.05565 6.0934,0.425113 0.23979,1.258853 1.35373,6.319239 2.2055,10.01912 0.2691,1.168903 0.72116,3.17272 1.00454,4.452935 0.28339,1.280221 1.06308,4.777551 1.73262,7.771852 0.66955,2.994295 1.19282,5.465287 1.16283,5.491069 -0.11245,0.09675 -13.82101,4.216355 -22.92641,6.889728 -1.33589,0.392217 -3.11201,0.930163 -3.94693,1.195445 -0.83493,0.265282 -4.02283,1.225274 -7.08422,2.133309 -3.06139,0.90805 -5.97604,1.7773 -6.477,1.93166 -0.50096,0.15436 -4.2809,1.28853 -8.39987,2.52037 -9.49223,2.83881 -9.00257,2.69191 -11.03113,3.30938 -0.94625,0.28802 -3.26242,0.98278 -5.14708,1.54392 -1.88464,0.56112 -3.46511,1.05876 -3.51218,1.10582 -0.14116,0.14118 3.46934,6.22447 3.76064,6.33624 0.2652,0.10181 2.04512,-0.22889 6.82148,-1.26722 2.78458,-0.60534 6.79998,-1.45496 11.01909,-2.33153 1.60756,-0.33399 3.93016,-0.82954 5.16136,-1.10121 2.22425,-0.49079 11.30271,-2.42145 14.7877,-3.1448 1.75248,-0.36374 5.20364,-1.09703 11.43596,-2.42985 1.61418,-0.3452 4.66546,-0.98694 6.78061,-1.42606 2.11514,-0.4391 4.02788,-0.8787 4.25054,-0.97685 0.22264,-0.0981 0.66631,-0.18916 0.98594,-0.20222 0.53723,-0.0219 2.37007,-0.40207 5.56681,-1.15454 0.7096,-0.16702 1.31266,-0.27705 1.34016,-0.24451 0.17717,0.20983 0.87957,4.11438 0.75827,4.21514 -0.0826,0.0685 -0.83326,0.27219 -1.66816,0.45243 -4.99158,1.07753 -25.19474,5.35811 -27.02124,5.72515 -0.77928,0.15661 -2.69202,0.5604 -4.25055,0.89733 -1.55852,0.33691 -3.5168,0.75565 -4.35173,0.93051 -0.83492,0.17487 -3.65849,0.77392 -6.27459,1.33126 -2.61609,0.55732 -6.21387,1.31987 -7.99505,1.69455 -1.78117,0.37466 -6.69964,1.41887 -10.92994,2.32044 -4.23028,0.9016 -7.91914,1.68514 -8.19745,1.74123 -0.42237,0.0851 -0.57647,-0.0253 -0.93207,-0.66756 z m -0.5217,-15.4576 c 1.52319,-0.45276 3.45255,-1.03842 4.28747,-1.30144 0.83493,-0.26303 2.29225,-0.70869 3.2385,-0.99035 0.94626,-0.28167 4.45294,-1.32748 7.79264,-2.32401 3.33971,-0.99653 6.39098,-1.904118 6.78062,-2.01686 0.38964,-0.112705 1.30045,-0.385455 2.02405,-0.606015 0.7236,-0.220554 3.04622,-0.914826 5.16136,-1.542837 2.11514,-0.627993 4.89318,-1.458536 6.17339,-1.845641 1.28022,-0.387116 2.91972,-0.881363 3.64332,-1.09832 0.7236,-0.216957 1.74467,-0.531234 2.26905,-0.698381 0.8452,-0.269408 4.28217,-1.293142 6.83922,-2.037157 0.50096,-0.145754 2.32262,-0.693298 4.04812,-1.216759 1.72552,-0.523474 4.76947,-1.442676 6.76436,-2.042696 1.99488,-0.600008 3.67466,-1.138539 3.73285,-1.196711 0.0582,-0.05812 -0.14589,-1.219219 -0.45354,-2.580077 -0.30761,-1.360851 -0.72815,-3.248487 -0.93451,-4.194731 -0.35825,-1.642791 -1.42822,-6.4491 -2.58469,-11.610543 -0.33372,-1.489466 -0.64726,-2.443007 -0.82577,-2.511514 -0.15829,-0.0608 -1.11812,0.03761 -2.13302,0.218667 -1.01487,0.180993 -3.62133,0.609089 -5.79214,0.951325 -4.14819,0.653969 -6.28517,0.993406 -12.75159,2.025423 -2.17081,0.346467 -5.03992,0.8029 -6.3758,1.014325 -1.33589,0.211412 -3.84066,0.61341 -5.56617,0.893317 -1.72551,0.279895 -6.0064,0.963066 -9.51309,1.518157 -3.50669,0.555092 -6.64905,1.057494 -6.98301,1.116464 -0.33397,0.05904 -2.29226,0.373709 -4.35174,0.699458 -10.23724,1.619219 -17.40627,2.768019 -19.63341,3.146129 -0.94625,0.160646 -2.23018,0.350939 -2.8532,0.422849 -0.623,0.07193 -1.24811,0.202082 -1.38913,0.289231 -0.28479,0.176009 -0.16276,0.415327 2.32459,4.559195 0.80186,1.335885 2.12311,3.567414 2.9361,4.958952 0.81299,1.391551 2.02261,3.440905 2.68803,4.554143 0.6654,1.113239 1.4146,2.388402 1.66488,2.833691 1.30548,2.322743 5.4321,9.125086 5.60063,9.232106 0.10725,0.0681 0.18539,0.18291 0.17362,0.25513 -0.0476,0.29257 0.91992,1.9487 1.13851,1.9487 0.0495,0 1.33633,-0.37044 2.8595,-0.82322 z m 1.15018,-35.285668 c 1.11324,-0.173867 4.02788,-0.637317 6.47699,-1.029887 2.44912,-0.392576 5.40932,-0.862637 6.5782,-1.044591 1.1689,-0.181949 2.19695,-0.394208 2.28455,-0.471698 0.14017,-0.123971 -0.92909,-7.55044 -1.77832,-12.35129 -0.37696,-2.131087 -1.11152,-6.720396 -1.11263,-6.951425 0,-0.184803 -1.14313,-0.07053 -3.84653,0.384597 -0.94625,0.159333 -2.90454,0.474151 -4.35173,0.699592 -1.44722,0.225447 -3.49658,0.550484 -4.55414,0.722287 -1.05758,0.171803 -3.22385,0.522299 -4.81394,0.778841 -1.59008,0.25656 -2.93185,0.507241 -2.98168,0.557081 -0.0498,0.04979 0.0824,1.177735 0.2941,2.506433 0.21157,1.328704 0.71356,4.510736 1.11552,7.071165 0.40197,2.560448 0.8649,5.429555 1.02875,6.375804 0.16385,0.94625 0.29771,1.919455 0.29749,2.162693 -2e-4,0.243231 0.0847,0.666062 0.18871,0.939621 l 0.1891,0.497388 1.48076,-0.265245 c 0.81439,-0.145894 2.39156,-0.4075 3.5048,-0.581366 z m 21.75867,-3.453632 c 0.94624,-0.163117 2.90452,-0.484143 4.35174,-0.713401 5.83553,-0.924436 6.51616,-1.034713 7.48903,-1.213387 0.5566,-0.102195 2.65151,-0.430932 4.65534,-0.730431 2.00382,-0.299499 3.72945,-0.622509 3.83472,-0.717789 0.11992,-0.108525 0.10258,-0.721588 -0.0466,-1.641563 -0.13088,-0.807574 -0.42786,-2.697924 -0.65992,-4.200799 -0.72627,-4.703257 -0.61216,-4.353558 -1.41611,-4.339493 -0.38504,0.0063 -1.65646,0.163459 -2.82535,0.34828 -1.16891,0.18481 -4.17463,0.661961 -6.67942,1.060306 -2.50476,0.398371 -5.96591,0.944132 -7.69143,1.212835 -1.72551,0.268702 -3.365,0.530716 -3.6433,0.582242 -0.27832,0.05155 -0.57435,0.100545 -0.65783,0.10878 -0.23769,0.02355 -0.1823,0.804622 0.2328,3.284043 0.21155,1.263447 0.55083,3.412945 0.75399,4.776651 0.20313,1.363718 0.41718,2.479665 0.47562,2.47989 0.0584,2.19e-4 0.88044,-0.13304 1.8267,-0.296139 z m -63.55558,44.52957 c 0,-0.0279 -0.22322,-0.95171 -0.49607,-2.05318 -0.27283,-1.10146 -0.43223,-2.06498 -0.35421,-2.14115 0.078,-0.0761 1.09824,-0.36278 2.26714,-0.63693 1.16889,-0.27416 3.53704,-0.83708 5.26256,-1.25095 1.72552,-0.41386 3.72933,-0.88359 4.45294,-1.04383 0.72359,-0.16022 1.49781,-0.33754 1.72045,-0.39403 0.22265,-0.0565 0.74859,-0.15501 1.16877,-0.21898 0.42017,-0.064 0.81266,-0.19509 0.87218,-0.29139 0.0595,-0.0964 0.28147,-0.17509 0.49327,-0.17509 0.40522,0 0.48806,0.21677 1.08258,2.83249 0.16432,0.72295 0.26818,1.34504 0.2308,1.38242 -0.0767,0.0767 -1.98342,0.55584 -5.26445,1.32265 -1.22456,0.2862 -4.00258,0.94544 -6.17338,1.46496 -5.33621,1.27709 -5.26258,1.26026 -5.26258,1.20301 z"
     id="path4163" />
</svg>
